<?xml version="1.0"?>
<svg width="640" height="640" xmlns="http://www.w3.org/2000/svg" xmlns:svg="http://www.w3.org/2000/svg" version="1.1" xml:space="preserve">
 <g class="layer">
  <title>Layer 1</title>
  <path d="m91.93,228.46c0,58.36 31.27,106.15 63.17,152.53q136.93,207.13 146.06,221.33a19.81,17.24 0 0 0 20.08,8.67a19.81,17.24 0 0 0 20.05,-8.65q142.51,-221.06 148.2,-229.66c28.8,-43.69 58.58,-88.86 58.58,-144.23c0,-109.42 -102.31,-198.45 -228.08,-198.45s-228.06,89.04 -228.06,198.46l0,0l0,0z" fill="#000a9a" fill-rule=" nonzero" id="svg_2" stroke="#000a9a" stroke-dasharray=" none" stroke-dashoffset="0" stroke-miterlimit="4" stroke-width="60" transform="matrix(1 0 0 1 0 0)"/>
  <line fill="none" id="svg_15" stroke=" #FFFFFF" stroke-linecap="round" stroke-width="30" transform="matrix(1 0 0 1 0 0)" x1="181.63" x2="458.37" y1="422.06" y2="422.06"/>
  <line fill="none" id="svg_5" stroke=" #FFFFFF" stroke-linecap="round" stroke-width="25" x1="200.52" x2="439.48" y1="184.33" y2="184.33"/>
  <g id="svg_10" transform="translate(0 1) translate(0 1) translate(0 1) translate(0 1) translate(0 1) translate(0 1) translate(0 1) translate(0 1) translate(0 1) translate(0 1) translate(0 1) translate(0 1) translate(0 1) translate(0 1) translate(0 1) translate(0 1) translate(0 1) translate(423.115 216.649) matrix(1.05627 0 0 1.00678 -435.718 -232.507)">
   <line fill="none" id="svg_3" stroke=" #FFFFFF" stroke-linecap="round" stroke-width="30" x1="218.22" x2="218.22" y1="231.74" y2="365.14"/>
   <line fill="none" id="svg_6" stroke=" #FFFFFF" stroke-linecap="round" stroke-width="30" x1="411.56" x2="411.56" y1="231.74" y2="365.14"/>
  </g>
  <g id="svg_14" transform="matrix(1 0 0 1 0 0) translate(0 -1) translate(0 -1) translate(0 -1) translate(0 -1) translate(0 -1) translate(0 -1) translate(0 -1) translate(0 -1) translate(0 -1) translate(0 -1) translate(0 -1) translate(0 -1) translate(0 -1) matrix(1 0 0 1 -4.43 5.55556)">
   <line fill="none" id="svg_11" stroke=" #FFFFFF" stroke-linecap="round" stroke-width="31" x1="325.37" x2="484.78" y1="66.12" y2="199.89"/>
   <line fill="none" id="svg_13" stroke=" #FFFFFF" stroke-linecap="round" stroke-width="31" transform="rotate(100 243.7796859741211,133.4499282836914)" x1="164.07" x2="323.48" y1="66.57" y2="200.33"/>
  </g>
  <text fill="#ffffff" font-family="Sans-serif" font-size="213" id="svg_16" stroke=" #FFFFFF" stroke-linecap="round" stroke-width="10" text-anchor="middle" transform="matrix(1 0 0 1 0 0)" x="320" xml:space="preserve" y="372.78">$</text>
 </g>
</svg>